<?xml version="1.0" standalone="no"?>
<svg viewBox="0 0 200 200" xmlns="http://www.w3.org/2000/svg">
  <path fill="#EDE9F1" d="M38,-63.5C47.8,-60,53.6,-47.2,60.9,-35C68.3,-22.8,77.2,-11.4,81.5,2.5C85.9,16.4,85.6,32.9,76,41.1C66.4,49.3,47.4,49.3,33.2,55.4C19,61.4,9.5,73.6,-2.5,77.8C-14.4,82.1,-28.8,78.5,-42.1,71.9C-55.4,65.3,-67.7,55.7,-70.6,43.2C-73.5,30.8,-67.1,15.4,-61.8,3.1C-56.5,-9.2,-52.2,-18.5,-47.2,-27.2C-42.1,-35.9,-36.2,-44.1,-28.2,-48.7C-20.2,-53.3,-10.1,-54.3,2,-57.7C14,-61.2,28.1,-67,38,-63.5Z" transform="translate(100 100)" />
</svg>
