<?xml version="1.0" standalone="no"?>
<svg viewBox="0 0 200 200" xmlns="http://www.w3.org/2000/svg">
  <path fill="#F0CCCC" d="M41.5,-70.7C51.4,-66.2,55.3,-50.2,57.8,-36.5C60.4,-22.8,61.6,-11.4,62.8,0.7C63.9,12.7,65.1,25.5,58.8,32.7C52.5,40,38.8,41.7,27.8,49.3C16.7,56.8,8.4,70.1,-2.2,73.9C-12.7,77.7,-25.5,72,-35.2,63.6C-44.8,55.3,-51.4,44.4,-60.6,33.4C-69.7,22.3,-81.4,11.2,-85.9,-2.6C-90.5,-16.4,-87.8,-32.8,-80.1,-46.3C-72.4,-59.9,-59.7,-70.6,-45.5,-72.5C-31.3,-74.5,-15.6,-67.8,0.1,-68C15.8,-68.2,31.7,-75.2,41.5,-70.7Z" transform="translate(100 100)" />
</svg>
