<svg width="430" height="381" viewBox="0 0 430 381" fill="none" xmlns="http://www.w3.org/2000/svg">
<path fill-rule="evenodd" clip-rule="evenodd" d="M-17.682 140.535C27.9268 90.677 55.8611 -2.09429 123.375 0.716276C194.889 3.69338 212.24 108.969 269.079 152.473C310.386 184.089 376.622 175.917 407.229 217.977C438.259 260.619 427.696 318.79 428.48 371.522C429.3 426.663 435.41 482.873 411.912 532.763C386.215 587.321 346.165 637.574 291.339 662.695C235.866 688.114 171.703 683.379 112.142 670.119C54.5195 657.29 7.22762 622.624 -41.0757 588.687C-96.4216 549.802 -173.558 523.002 -190.469 457.509C-207.384 392.002 -155.658 329.752 -123.276 270.349C-96.0273 220.361 -56.109 182.543 -17.682 140.535Z" fill="#D5ECE2"/>
</svg>
